<svg xmlns="http://www.w3.org/2000/svg" viewBox="0 0 24 24" id="bookmark"><path fill="#75afff" d="m18.879,21h0c-.563,0-1.102-.223-1.5-.621l-2.672-2.672c-.391-.391-1.024-.391-1.414,0l-2.672,2.672c-.398.398-.937.621-1.5.621h0c-1.172,0-2.121-.95-2.121-2.121V5c0-1.105.895-2,2-2h10c1.105,0,2,.895,2,2v13.879c0,1.172-.95,2.121-2.121,2.121Z"></path><path fill="#112d55" d="m17,2.25H7c-1.517,0-2.75,1.233-2.75,2.75v13.879c0,1.583,1.288,2.871,2.871,2.871.756,0,1.496-.307,2.03-.841l2.672-2.672c.127-.127.227-.127.354,0l2.672,2.672c.534.534,1.274.841,2.03.841,1.583,0,2.871-1.288,2.871-2.871V5c0-1.517-1.233-2.75-2.75-2.75Zm1.25,16.629c0,.756-.615,1.371-1.371,1.371-.361,0-.715-.146-.97-.401l-2.672-2.672c-.33-.331-.77-.513-1.237-.513s-.907.182-1.237.513l-2.672,2.672c-.255.255-.608.401-.97.401-.756,0-1.371-.615-1.371-1.371V5c0-.689.561-1.25,1.25-1.25h10c.689,0,1.25.561,1.25,1.25v13.879Z"></path></svg>